Cover: http://www.shotpix.com/images/16035878589338004344.jpg


Release Title: The Hours (2002)

					
Genre: Drama
IMDb Rating: 7.5/10 http://www.imdb.com/title/tt0274558/


Plot: The story of how the novel "Mrs. Dalloway" affects three generations of women, all of whom, in one way or another, have had to deal with suicide in their lives.


Director: Stephen Daldry


Stars: Meryl Streep, Nicole Kidman and Julianne Moore.

Details:

General

Format                         : MPEG-4
Format profile                 : Base Media / Version 2
Codec ID                       : mp42
File size                      : 743 MiB
Duration                       : 1h 49mn
Overall bit rate mode          : Variable
Overall bit rate               : 944 Kbps
Source                         : The Hours [2002] 720p BRRip XviD AC3 - CODY (Thanks!)


Video
ID                             : 1
Format                         : AVC
Format/Info                    : Advanced Video Codec
Format profile                 : High@L4.1
Format settings, CABAC         : Yes
Format settings, ReFrames      : 4 frames
Codec ID                       : avc1
Codec ID/Info                  : Advanced Video Coding
Duration                       : 1h 49mn
Bit rate mode                  : Variable
Bit rate                       : 812 Kbps
Maximum bit rate               : 50.0 Mbps
Width                          : 1 280 pixels
Height                         : 688 pixels
Display aspect ratio           : 1.860
Frame rate mode                : Constant
Frame rate                     : 25.000 fps
Color space                    : YUV
Chroma subsampling             : 4:2:0
Bit depth                      : 8 bits
Scan type                      : Progressive
Bits/(Pixel*Frame)             : 0.037
Stream size                    : 638 MiB (86%)
Forced                         : No


[code]Audio
ID                             : 2
Format                         : AAC
Format/Info                    : Advanced Audio Codec
Format profile                 : LC
Codec ID                       : 40
Duration                       : 1h 49mn
Bit rate mode                  : Variable
Bit rate                       : 128 Kbps
Maximum bit rate               : 159 Kbps
Channel(s)                     : 2 channels
Channel positions              : Front: L R
Sampling rate                  : 48.0 KHz
Stream size                    : 101 MiB (14%)
Forced                         : No

Subtitles                      : Yes (English)




Screens:

 
http://www.shotpix.com/images/92505019797759598837.jpg 
http://www.shotpix.com/images/35478284042352810098.jpg 
http://www.shotpix.com/images/30882364998009732590.jpg 
http://www.shotpix.com/images/72797380343804062983.jpg

Thumbs:
 
http://www.shotpix.com/images/92095428258076057112.jpg






------------------------------------------------------------------------


Check sample to be sure, Use VLC Player or Shark007 codec pack.
Seed as much as you can.


Greets to: srkfan, VYTO, MgB, staff members at ExtraTorrent, TPB,KAT, 1337x, PublicHD, Ahashare,
SilverTorrent, TorrentMafia, P2PDL, and all others


Encoder Notes: Looking For Early Access To Anything You Can Provide DVDScr, R5, DVDRips, BluRay, Direct Audio, Early Music
Releases, Seedboxes, Links, Dedicated Servers anything u can provide, Advance / Promo CDs/DVDs. If You Got anything to
offer contact me at "contact@tinym.eu"

                                    Enjoy!